<svg width="30" height="30" viewBox="0 0 30 30" fill="none" xmlns="http://www.w3.org/2000/svg">
<path fill-rule="evenodd" clip-rule="evenodd" d="M25 13.75C25 10.2388 25 8.48327 24.1573 7.22215C23.7926 6.6762 23.3238 6.20744 22.7779 5.84265C21.5167 5 19.7612 5 16.25 5H13.75C10.2388 5 8.48327 5 7.22215 5.84265C6.6762 6.20744 6.20744 6.6762 5.84265 7.22215C5 8.48327 5 10.2388 5 13.75C5 17.2612 5 19.0167 5.84265 20.2779C6.20744 20.8238 6.6762 21.2926 7.22215 21.6573C8.32384 22.3935 9.80287 22.4865 12.5 22.4983V22.5L14.1056 25.7111C14.4741 26.4482 15.5259 26.4482 15.8944 25.7111L17.5 22.5V22.4983C20.1971 22.4865 21.6762 22.3935 22.7779 21.6573C23.3238 21.2926 23.7926 20.8238 24.1573 20.2779C25 19.0167 25 17.2612 25 13.75ZM10 15C10.6904 15 11.25 14.4404 11.25 13.75C11.25 13.0596 10.6904 12.5 10 12.5C9.30964 12.5 8.75 13.0596 8.75 13.75C8.75 14.4404 9.30964 15 10 15ZM16.25 13.75C16.25 14.4404 15.6904 15 15 15C14.3096 15 13.75 14.4404 13.75 13.75C13.75 13.0596 14.3096 12.5 15 12.5C15.6904 12.5 16.25 13.0596 16.25 13.75ZM21.25 13.75C21.25 14.4404 20.6904 15 20 15C19.3096 15 18.75 14.4404 18.75 13.75C18.75 13.0596 19.3096 12.5 20 12.5C20.6904 12.5 21.25 13.0596 21.25 13.75Z" fill="white"/>
</svg>
