<svg width="160" height="27" viewBox="0 0 160 27" fill="none" xmlns="http://www.w3.org/2000/svg">
<rect width="160" height="27" rx="10" transform="matrix(1 0 0 -1 0 27)" fill="#815FB6"/>
<path d="M22.6437 8.12753C23.4303 6.16653 23.8236 5.18604 24.5 5.18604C25.1763 5.18604 25.5696 6.16653 26.3562 8.12753L26.3928 8.21885C26.8372 9.32672 27.0594 9.88065 27.5123 10.2173C27.9651 10.554 28.5596 10.6073 29.7485 10.7137L29.9634 10.733C31.9092 10.9073 32.8822 10.9944 33.0903 11.6134C33.2985 12.2324 32.576 12.8897 31.1309 14.2044L30.6487 14.6432C29.9172 15.3087 29.5514 15.6414 29.3809 16.0776C29.3491 16.1589 29.3227 16.2423 29.3018 16.3271C29.1897 16.7817 29.2968 17.2645 29.5111 18.2299L29.5777 18.5305C29.9714 20.3048 30.1682 21.192 29.8246 21.5746C29.6961 21.7176 29.5292 21.8206 29.3438 21.8712C28.8476 22.0066 28.1431 21.4325 26.7342 20.2844C25.809 19.5305 25.3464 19.1536 24.8153 19.0688C24.6064 19.0354 24.3935 19.0354 24.1846 19.0688C23.6535 19.1536 23.1909 19.5305 22.2658 20.2844C20.8568 21.4325 20.1523 22.0066 19.6561 21.8712C19.4707 21.8206 19.3038 21.7176 19.1754 21.5746C18.8317 21.192 19.0285 20.3048 19.4222 18.5305L19.4889 18.2299C19.7031 17.2645 19.8102 16.7817 19.6982 16.3271C19.6772 16.2423 19.6508 16.1589 19.619 16.0776C19.4485 15.6414 19.0828 15.3087 18.3513 14.6432L17.869 14.2044C16.424 12.8897 15.7014 12.2324 15.9096 11.6134C16.1178 10.9944 17.0907 10.9073 19.0365 10.733L19.2514 10.7137C20.4404 10.6073 21.0348 10.554 21.4877 10.2173C21.9405 9.88065 22.1627 9.32672 22.6071 8.21885L22.6437 8.12753Z" stroke="white"/>
<path d="M29.5 7.5L31.5 5.5" stroke="#C6A8DC" stroke-linecap="round"/>
<path d="M32.5 17.5L34.5 19.5" stroke="#C6A8DC" stroke-linecap="round"/>
<path d="M24.5 21V23.5" stroke="#C6A8DC" stroke-linecap="round"/>
<path d="M19.5 7.5L17.5 5.5" stroke="#C6A8DC" stroke-linecap="round"/>
<path d="M16.5 17.5L14.5 19.5" stroke="#C6A8DC" stroke-linecap="round"/>
<path d="M47.3295 11.4545C47.2784 11.0227 47.071 10.6875 46.7074 10.4489C46.3438 10.2102 45.8977 10.0909 45.3693 10.0909C44.983 10.0909 44.6449 10.1534 44.3551 10.2784C44.0682 10.4034 43.8438 10.5753 43.6818 10.794C43.5227 11.0128 43.4432 11.2614 43.4432 11.5398C43.4432 11.7727 43.4986 11.973 43.6094 12.1406C43.723 12.3054 43.8679 12.4432 44.044 12.554C44.2202 12.6619 44.4048 12.7514 44.598 12.8224C44.7912 12.8906 44.9688 12.946 45.1307 12.9886L46.017 13.2273C46.2443 13.2869 46.4972 13.3693 46.7756 13.4744C47.0568 13.5795 47.3253 13.723 47.581 13.9048C47.8395 14.0838 48.0526 14.3139 48.2202 14.5952C48.3878 14.8764 48.4716 15.2216 48.4716 15.6307C48.4716 16.1023 48.348 16.5284 48.1009 16.9091C47.8565 17.2898 47.4986 17.5923 47.027 17.8168C46.5582 18.0412 45.9886 18.1534 45.3182 18.1534C44.6932 18.1534 44.152 18.0526 43.6946 17.8509C43.2401 17.6491 42.8821 17.3679 42.6207 17.0071C42.3622 16.6463 42.2159 16.2273 42.1818 15.75H43.2727C43.3011 16.0795 43.4119 16.3523 43.6051 16.5682C43.8011 16.7812 44.0483 16.9403 44.3466 17.0455C44.6477 17.1477 44.9716 17.1989 45.3182 17.1989C45.7216 17.1989 46.0838 17.1335 46.4048 17.0028C46.7259 16.8693 46.9801 16.6847 47.1676 16.4489C47.3551 16.2102 47.4489 15.9318 47.4489 15.6136C47.4489 15.3239 47.3679 15.0881 47.206 14.9062C47.044 14.7244 46.831 14.5767 46.5668 14.4631C46.3026 14.3494 46.017 14.25 45.7102 14.1648L44.6364 13.858C43.9545 13.6619 43.4148 13.3821 43.017 13.0185C42.6193 12.6548 42.4205 12.179 42.4205 11.5909C42.4205 11.1023 42.5526 10.6761 42.8168 10.3125C43.0838 9.94602 43.4418 9.66193 43.8906 9.46023C44.3423 9.25568 44.8466 9.15341 45.4034 9.15341C45.9659 9.15341 46.4659 9.25426 46.9034 9.45597C47.3409 9.65483 47.6875 9.92756 47.9432 10.2741C48.2017 10.6207 48.3381 11.0142 48.3523 11.4545H47.3295ZM54.1978 15.3239V11.4545H55.2035V18H54.1978V16.892H54.1296C53.9762 17.2244 53.7376 17.5071 53.4137 17.7401C53.0898 17.9702 52.6808 18.0852 52.1864 18.0852C51.7773 18.0852 51.4137 17.9957 51.0955 17.8168C50.7773 17.6349 50.5273 17.3622 50.3455 16.9986C50.1637 16.6321 50.0728 16.1705 50.0728 15.6136V11.4545H51.0785V15.5455C51.0785 16.0227 51.212 16.4034 51.479 16.6875C51.7489 16.9716 52.0927 17.1136 52.5103 17.1136C52.7603 17.1136 53.0146 17.0497 53.2731 16.9219C53.5344 16.794 53.7532 16.598 53.9293 16.3338C54.1083 16.0696 54.1978 15.733 54.1978 15.3239ZM59.6875 20.5909C59.2017 20.5909 58.7841 20.5284 58.4347 20.4034C58.0852 20.2812 57.794 20.1193 57.5611 19.9176C57.331 19.7188 57.1477 19.5057 57.0114 19.2784L57.8125 18.7159C57.9034 18.8352 58.0185 18.9716 58.1577 19.125C58.2969 19.2812 58.4872 19.4162 58.7287 19.5298C58.973 19.6463 59.2926 19.7045 59.6875 19.7045C60.2159 19.7045 60.652 19.5767 60.9957 19.321C61.3395 19.0653 61.5114 18.6648 61.5114 18.1193V16.7898H61.4261C61.3523 16.9091 61.2472 17.0568 61.1108 17.233C60.9773 17.4062 60.7841 17.5611 60.5312 17.6974C60.2812 17.831 59.9432 17.8977 59.517 17.8977C58.9886 17.8977 58.5142 17.7727 58.0938 17.5227C57.6761 17.2727 57.3452 16.9091 57.1009 16.4318C56.8594 15.9545 56.7386 15.375 56.7386 14.6932C56.7386 14.0227 56.8565 13.4389 57.0923 12.9418C57.3281 12.4418 57.6563 12.0554 58.0767 11.7827C58.4972 11.5071 58.983 11.3693 59.5341 11.3693C59.9602 11.3693 60.2983 11.4403 60.5483 11.5824C60.8011 11.7216 60.9943 11.8807 61.1278 12.0597C61.2642 12.2358 61.3693 12.3807 61.4432 12.4943H61.5455V11.4545H62.517V18.1875C62.517 18.75 62.3892 19.2074 62.1335 19.5597C61.8807 19.9148 61.5398 20.1747 61.1108 20.3395C60.6847 20.5071 60.2102 20.5909 59.6875 20.5909ZM59.6534 16.9943C60.0568 16.9943 60.3977 16.902 60.6761 16.7173C60.9545 16.5327 61.1662 16.267 61.3111 15.9205C61.456 15.5739 61.5284 15.1591 61.5284 14.6761C61.5284 14.2045 61.4574 13.7884 61.3153 13.4276C61.1733 13.0668 60.9631 12.7841 60.6847 12.5795C60.4063 12.375 60.0625 12.2727 59.6534 12.2727C59.2273 12.2727 58.8722 12.3807 58.5881 12.5966C58.3068 12.8125 58.0952 13.1023 57.9531 13.4659C57.8139 13.8295 57.7443 14.233 57.7443 14.6761C57.7443 15.1307 57.8153 15.5327 57.9574 15.8821C58.1023 16.2287 58.3153 16.5014 58.5966 16.7003C58.8807 16.8963 59.233 16.9943 59.6534 16.9943ZM67 20.5909C66.5142 20.5909 66.0966 20.5284 65.7472 20.4034C65.3977 20.2812 65.1065 20.1193 64.8736 19.9176C64.6435 19.7188 64.4602 19.5057 64.3239 19.2784L65.125 18.7159C65.2159 18.8352 65.331 18.9716 65.4702 19.125C65.6094 19.2812 65.7997 19.4162 66.0412 19.5298C66.2855 19.6463 66.6051 19.7045 67 19.7045C67.5284 19.7045 67.9645 19.5767 68.3082 19.321C68.652 19.0653 68.8239 18.6648 68.8239 18.1193V16.7898H68.7386C68.6648 16.9091 68.5597 17.0568 68.4233 17.233C68.2898 17.4062 68.0966 17.5611 67.8438 17.6974C67.5938 17.831 67.2557 17.8977 66.8295 17.8977C66.3011 17.8977 65.8267 17.7727 65.4062 17.5227C64.9886 17.2727 64.6577 16.9091 64.4134 16.4318C64.1719 15.9545 64.0511 15.375 64.0511 14.6932C64.0511 14.0227 64.169 13.4389 64.4048 12.9418C64.6406 12.4418 64.9688 12.0554 65.3892 11.7827C65.8097 11.5071 66.2955 11.3693 66.8466 11.3693C67.2727 11.3693 67.6108 11.4403 67.8608 11.5824C68.1136 11.7216 68.3068 11.8807 68.4403 12.0597C68.5767 12.2358 68.6818 12.3807 68.7557 12.4943H68.858V11.4545H69.8295V18.1875C69.8295 18.75 69.7017 19.2074 69.446 19.5597C69.1932 19.9148 68.8523 20.1747 68.4233 20.3395C67.9972 20.5071 67.5227 20.5909 67 20.5909ZM66.9659 16.9943C67.3693 16.9943 67.7102 16.902 67.9886 16.7173C68.267 16.5327 68.4787 16.267 68.6236 15.9205C68.7685 15.5739 68.8409 15.1591 68.8409 14.6761C68.8409 14.2045 68.7699 13.7884 68.6278 13.4276C68.4858 13.0668 68.2756 12.7841 67.9972 12.5795C67.7188 12.375 67.375 12.2727 66.9659 12.2727C66.5398 12.2727 66.1847 12.3807 65.9006 12.5966C65.6193 12.8125 65.4077 13.1023 65.2656 13.4659C65.1264 13.8295 65.0568 14.233 65.0568 14.6761C65.0568 15.1307 65.1278 15.5327 65.2699 15.8821C65.4148 16.2287 65.6278 16.5014 65.9091 16.7003C66.1932 16.8963 66.5455 16.9943 66.9659 16.9943ZM74.4148 18.1364C73.7841 18.1364 73.2401 17.9972 72.7827 17.7188C72.3281 17.4375 71.9773 17.0455 71.7301 16.5426C71.4858 16.0369 71.3636 15.4489 71.3636 14.7784C71.3636 14.108 71.4858 13.517 71.7301 13.0057C71.9773 12.4915 72.321 12.0909 72.7614 11.804C73.2045 11.5142 73.7216 11.3693 74.3125 11.3693C74.6534 11.3693 74.9901 11.4261 75.3224 11.5398C75.6548 11.6534 75.9574 11.8381 76.2301 12.0938C76.5028 12.3466 76.7202 12.6818 76.8821 13.0994C77.044 13.517 77.125 14.0312 77.125 14.642V15.0682H72.0795V14.1989H76.1023C76.1023 13.8295 76.0284 13.5 75.8807 13.2102C75.7358 12.9205 75.5284 12.6918 75.2585 12.5241C74.9915 12.3565 74.6761 12.2727 74.3125 12.2727C73.9119 12.2727 73.5653 12.3722 73.2727 12.571C72.983 12.767 72.7599 13.0227 72.6037 13.3381C72.4474 13.6534 72.3693 13.9915 72.3693 14.3523V14.9318C72.3693 15.4261 72.4545 15.8452 72.625 16.1889C72.7983 16.5298 73.0384 16.7898 73.3452 16.9688C73.652 17.1449 74.0085 17.233 74.4148 17.233C74.679 17.233 74.9176 17.196 75.1307 17.1222C75.3466 17.0455 75.5327 16.9318 75.6889 16.7812C75.8452 16.6278 75.9659 16.4375 76.0511 16.2102L77.0227 16.483C76.9205 16.8125 76.7486 17.1023 76.5071 17.3523C76.2656 17.5994 75.9673 17.7926 75.6122 17.9318C75.2571 18.0682 74.858 18.1364 74.4148 18.1364ZM83.2912 12.9205L82.3878 13.1761C82.331 13.0256 82.2472 12.8793 82.1364 12.7372C82.0284 12.5923 81.8807 12.473 81.6932 12.3793C81.5057 12.2855 81.2656 12.2386 80.973 12.2386C80.5724 12.2386 80.2386 12.331 79.9716 12.5156C79.7074 12.6974 79.5753 12.929 79.5753 13.2102C79.5753 13.4602 79.6662 13.6577 79.848 13.8026C80.0298 13.9474 80.3139 14.0682 80.7003 14.1648L81.6719 14.4034C82.2571 14.5455 82.6932 14.7628 82.9801 15.0554C83.267 15.3452 83.4105 15.7187 83.4105 16.1761C83.4105 16.5511 83.3026 16.8864 83.0866 17.1818C82.8736 17.4773 82.5753 17.7102 82.1918 17.8807C81.8082 18.0511 81.3622 18.1364 80.8537 18.1364C80.1861 18.1364 79.6335 17.9915 79.196 17.7017C78.7585 17.4119 78.4815 16.9886 78.3651 16.4318L79.3196 16.1932C79.4105 16.5455 79.5824 16.8097 79.8352 16.9858C80.0909 17.1619 80.4247 17.25 80.8366 17.25C81.3054 17.25 81.6776 17.1506 81.9531 16.9517C82.2315 16.75 82.3707 16.5085 82.3707 16.2273C82.3707 16 82.2912 15.8097 82.1321 15.6562C81.973 15.5 81.7287 15.3835 81.3991 15.3068L80.3082 15.0511C79.7088 14.9091 79.2685 14.6889 78.9872 14.3906C78.7088 14.0895 78.5696 13.7131 78.5696 13.2614C78.5696 12.892 78.6733 12.5653 78.8807 12.2812C79.0909 11.9972 79.3764 11.7741 79.7372 11.6122C80.1009 11.4503 80.5128 11.3693 80.973 11.3693C81.6207 11.3693 82.1293 11.5114 82.4986 11.7955C82.8707 12.0795 83.1349 12.4545 83.2912 12.9205ZM87.771 11.4545V12.3068H84.3789V11.4545H87.771ZM85.3675 9.88636H86.3732V16.125C86.3732 16.4091 86.4144 16.6222 86.4968 16.7642C86.582 16.9034 86.69 16.9972 86.8207 17.0455C86.9542 17.0909 87.0948 17.1136 87.2425 17.1136C87.3533 17.1136 87.4442 17.108 87.5153 17.0966C87.5863 17.0824 87.6431 17.071 87.6857 17.0625L87.8903 17.9659C87.8221 17.9915 87.7269 18.017 87.6048 18.0426C87.4826 18.071 87.3278 18.0852 87.1403 18.0852C86.8562 18.0852 86.5778 18.0241 86.305 17.902C86.0352 17.7798 85.8107 17.5938 85.6317 17.3438C85.4556 17.0938 85.3675 16.7784 85.3675 16.3977V9.88636ZM92.7951 18V9.27273H95.744C96.4258 9.27273 96.9854 9.3892 97.4229 9.62216C97.8604 9.85227 98.1843 10.169 98.3945 10.5724C98.6048 10.9759 98.7099 11.4347 98.7099 11.9489C98.7099 12.4631 98.6048 12.919 98.3945 13.3168C98.1843 13.7145 97.8619 14.027 97.4272 14.2543C96.9925 14.4787 96.4371 14.5909 95.761 14.5909H93.3746V13.6364H95.7269C96.1928 13.6364 96.5678 13.5682 96.8519 13.4318C97.1388 13.2955 97.3462 13.1023 97.4741 12.8523C97.6048 12.5994 97.6701 12.2983 97.6701 11.9489C97.6701 11.5994 97.6048 11.294 97.4741 11.0327C97.3434 10.7713 97.1346 10.5696 96.8477 10.4276C96.5607 10.2827 96.1815 10.2102 95.7099 10.2102H93.8519V18H92.7951ZM96.9031 14.0795L99.0508 18H97.8235L95.7099 14.0795H96.9031ZM103.009 18.1364C102.378 18.1364 101.834 17.9972 101.376 17.7188C100.922 17.4375 100.571 17.0455 100.324 16.5426C100.08 16.0369 99.9574 15.4489 99.9574 14.7784C99.9574 14.108 100.08 13.517 100.324 13.0057C100.571 12.4915 100.915 12.0909 101.355 11.804C101.798 11.5142 102.315 11.3693 102.906 11.3693C103.247 11.3693 103.584 11.4261 103.916 11.5398C104.249 11.6534 104.551 11.8381 104.824 12.0938C105.097 12.3466 105.314 12.6818 105.476 13.0994C105.638 13.517 105.719 14.0312 105.719 14.642V15.0682H100.673V14.1989H104.696C104.696 13.8295 104.622 13.5 104.474 13.2102C104.33 12.9205 104.122 12.6918 103.852 12.5241C103.585 12.3565 103.27 12.2727 102.906 12.2727C102.506 12.2727 102.159 12.3722 101.866 12.571C101.577 12.767 101.354 13.0227 101.197 13.3381C101.041 13.6534 100.963 13.9915 100.963 14.3523V14.9318C100.963 15.4261 101.048 15.8452 101.219 16.1889C101.392 16.5298 101.632 16.7898 101.939 16.9688C102.246 17.1449 102.602 17.233 103.009 17.233C103.273 17.233 103.511 17.196 103.724 17.1222C103.94 17.0455 104.126 16.9318 104.283 16.7812C104.439 16.6278 104.56 16.4375 104.645 16.2102L105.616 16.483C105.514 16.8125 105.342 17.1023 105.101 17.3523C104.859 17.5994 104.561 17.7926 104.206 17.9318C103.851 18.0682 103.452 18.1364 103.009 18.1364ZM111.885 12.9205L110.982 13.1761C110.925 13.0256 110.841 12.8793 110.73 12.7372C110.622 12.5923 110.474 12.473 110.287 12.3793C110.099 12.2855 109.859 12.2386 109.567 12.2386C109.166 12.2386 108.832 12.331 108.565 12.5156C108.301 12.6974 108.169 12.929 108.169 13.2102C108.169 13.4602 108.26 13.6577 108.442 13.8026C108.624 13.9474 108.908 14.0682 109.294 14.1648L110.266 14.4034C110.851 14.5455 111.287 14.7628 111.574 15.0554C111.861 15.3452 112.004 15.7187 112.004 16.1761C112.004 16.5511 111.896 16.8864 111.68 17.1818C111.467 17.4773 111.169 17.7102 110.786 17.8807C110.402 18.0511 109.956 18.1364 109.447 18.1364C108.78 18.1364 108.227 17.9915 107.79 17.7017C107.352 17.4119 107.075 16.9886 106.959 16.4318L107.913 16.1932C108.004 16.5455 108.176 16.8097 108.429 16.9858C108.685 17.1619 109.018 17.25 109.43 17.25C109.899 17.25 110.271 17.1506 110.547 16.9517C110.825 16.75 110.964 16.5085 110.964 16.2273C110.964 16 110.885 15.8097 110.726 15.6562C110.567 15.5 110.322 15.3835 109.993 15.3068L108.902 15.0511C108.303 14.9091 107.862 14.6889 107.581 14.3906C107.303 14.0895 107.163 13.7131 107.163 13.2614C107.163 12.892 107.267 12.5653 107.474 12.2812C107.685 11.9972 107.97 11.7741 108.331 11.6122C108.695 11.4503 109.107 11.3693 109.567 11.3693C110.214 11.3693 110.723 11.5114 111.092 11.7955C111.464 12.0795 111.729 12.4545 111.885 12.9205ZM113.518 20.4545V11.4545H114.49V12.4943H114.609C114.683 12.3807 114.785 12.2358 114.916 12.0597C115.049 11.8807 115.24 11.7216 115.487 11.5824C115.737 11.4403 116.075 11.3693 116.501 11.3693C117.052 11.3693 117.538 11.5071 117.958 11.7827C118.379 12.0582 118.707 12.4489 118.943 12.9545C119.179 13.4602 119.297 14.0568 119.297 14.7443C119.297 15.4375 119.179 16.0384 118.943 16.5469C118.707 17.0526 118.38 17.4446 117.963 17.723C117.545 17.9986 117.064 18.1364 116.518 18.1364C116.098 18.1364 115.761 18.0668 115.508 17.9276C115.255 17.7855 115.061 17.625 114.924 17.446C114.788 17.2642 114.683 17.1136 114.609 16.9943H114.524V20.4545H113.518ZM114.507 14.7273C114.507 15.2216 114.579 15.6577 114.724 16.0355C114.869 16.4105 115.081 16.7045 115.359 16.9176C115.637 17.1278 115.978 17.233 116.382 17.233C116.802 17.233 117.153 17.1222 117.434 16.9006C117.718 16.6761 117.931 16.375 118.074 15.9972C118.218 15.6165 118.291 15.1932 118.291 14.7273C118.291 14.267 118.22 13.8523 118.078 13.483C117.939 13.1108 117.727 12.8168 117.443 12.6009C117.162 12.3821 116.808 12.2727 116.382 12.2727C115.973 12.2727 115.629 12.3764 115.35 12.5838C115.072 12.7884 114.862 13.0753 114.72 13.4446C114.578 13.8111 114.507 14.2386 114.507 14.7273ZM123.49 18.1364C122.899 18.1364 122.38 17.9957 121.934 17.7145C121.491 17.4332 121.145 17.0398 120.895 16.5341C120.647 16.0284 120.524 15.4375 120.524 14.7614C120.524 14.0795 120.647 13.4844 120.895 12.9759C121.145 12.4673 121.491 12.0724 121.934 11.7912C122.38 11.5099 122.899 11.3693 123.49 11.3693C124.081 11.3693 124.598 11.5099 125.041 11.7912C125.487 12.0724 125.833 12.4673 126.081 12.9759C126.331 13.4844 126.456 14.0795 126.456 14.7614C126.456 15.4375 126.331 16.0284 126.081 16.5341C125.833 17.0398 125.487 17.4332 125.041 17.7145C124.598 17.9957 124.081 18.1364 123.49 18.1364ZM123.49 17.233C123.939 17.233 124.308 17.1179 124.598 16.8878C124.887 16.6577 125.102 16.3551 125.241 15.9801C125.38 15.6051 125.45 15.1989 125.45 14.7614C125.45 14.3239 125.38 13.9162 125.241 13.5384C125.102 13.1605 124.887 12.8551 124.598 12.6222C124.308 12.3892 123.939 12.2727 123.49 12.2727C123.041 12.2727 122.672 12.3892 122.382 12.6222C122.092 12.8551 121.877 13.1605 121.738 13.5384C121.599 13.9162 121.529 14.3239 121.529 14.7614C121.529 15.1989 121.599 15.6051 121.738 15.9801C121.877 16.3551 122.092 16.6577 122.382 16.8878C122.672 17.1179 123.041 17.233 123.49 17.233ZM128.996 14.0625V18H127.991V11.4545H128.962V12.4773H129.048C129.201 12.1449 129.434 11.8778 129.746 11.6761C130.059 11.4716 130.462 11.3693 130.957 11.3693C131.4 11.3693 131.788 11.4602 132.12 11.642C132.452 11.821 132.711 12.0938 132.896 12.4602C133.08 12.8239 133.173 13.2841 133.173 13.8409V18H132.167V13.9091C132.167 13.3949 132.033 12.9943 131.766 12.7074C131.499 12.4176 131.133 12.2727 130.667 12.2727C130.346 12.2727 130.059 12.3423 129.806 12.4815C129.556 12.6207 129.359 12.8239 129.214 13.0909C129.069 13.358 128.996 13.6818 128.996 14.0625ZM139.647 12.9205L138.743 13.1761C138.686 13.0256 138.603 12.8793 138.492 12.7372C138.384 12.5923 138.236 12.473 138.049 12.3793C137.861 12.2855 137.621 12.2386 137.328 12.2386C136.928 12.2386 136.594 12.331 136.327 12.5156C136.063 12.6974 135.931 12.929 135.931 13.2102C135.931 13.4602 136.022 13.6577 136.203 13.8026C136.385 13.9474 136.669 14.0682 137.056 14.1648L138.027 14.4034C138.613 14.5455 139.049 14.7628 139.336 15.0554C139.623 15.3452 139.766 15.7187 139.766 16.1761C139.766 16.5511 139.658 16.8864 139.442 17.1818C139.229 17.4773 138.931 17.7102 138.547 17.8807C138.164 18.0511 137.718 18.1364 137.209 18.1364C136.542 18.1364 135.989 17.9915 135.551 17.7017C135.114 17.4119 134.837 16.9886 134.721 16.4318L135.675 16.1932C135.766 16.5455 135.938 16.8097 136.191 16.9858C136.446 17.1619 136.78 17.25 137.192 17.25C137.661 17.25 138.033 17.1506 138.309 16.9517C138.587 16.75 138.726 16.5085 138.726 16.2273C138.726 16 138.647 15.8097 138.488 15.6562C138.328 15.5 138.084 15.3835 137.755 15.3068L136.664 15.0511C136.064 14.9091 135.624 14.6889 135.343 14.3906C135.064 14.0895 134.925 13.7131 134.925 13.2614C134.925 12.892 135.029 12.5653 135.236 12.2812C135.446 11.9972 135.732 11.7741 136.093 11.6122C136.456 11.4503 136.868 11.3693 137.328 11.3693C137.976 11.3693 138.485 11.5114 138.854 11.7955C139.226 12.0795 139.49 12.4545 139.647 12.9205ZM144.024 18.1364C143.393 18.1364 142.849 17.9972 142.392 17.7188C141.938 17.4375 141.587 17.0455 141.339 16.5426C141.095 16.0369 140.973 15.4489 140.973 14.7784C140.973 14.108 141.095 13.517 141.339 13.0057C141.587 12.4915 141.93 12.0909 142.371 11.804C142.814 11.5142 143.331 11.3693 143.922 11.3693C144.263 11.3693 144.599 11.4261 144.932 11.5398C145.264 11.6534 145.567 11.8381 145.839 12.0938C146.112 12.3466 146.33 12.6818 146.491 13.0994C146.653 13.517 146.734 14.0312 146.734 14.642V15.0682H141.689V14.1989H145.712C145.712 13.8295 145.638 13.5 145.49 13.2102C145.345 12.9205 145.138 12.6918 144.868 12.5241C144.601 12.3565 144.286 12.2727 143.922 12.2727C143.521 12.2727 143.175 12.3722 142.882 12.571C142.592 12.767 142.369 13.0227 142.213 13.3381C142.057 13.6534 141.979 13.9915 141.979 14.3523V14.9318C141.979 15.4261 142.064 15.8452 142.234 16.1889C142.408 16.5298 142.648 16.7898 142.955 16.9688C143.261 17.1449 143.618 17.233 144.024 17.233C144.288 17.233 144.527 17.196 144.74 17.1222C144.956 17.0455 145.142 16.9318 145.298 16.7812C145.455 16.6278 145.575 16.4375 145.661 16.2102L146.632 16.483C146.53 16.8125 146.358 17.1023 146.116 17.3523C145.875 17.5994 145.577 17.7926 145.222 17.9318C144.866 18.0682 144.467 18.1364 144.024 18.1364Z" fill="white"/>
</svg>
