<svg width="309" height="60" viewBox="0 0 309 60" fill="none" xmlns="http://www.w3.org/2000/svg">
<mask id="path-1-inside-1_78_1931" fill="white">
<path fill-rule="evenodd" clip-rule="evenodd" d="M154 43C173.33 43 189 27.33 189 8C189 5.24757 188.682 2.56934 188.082 0H289C300.046 0 309 8.95431 309 20V40C309 51.0457 300.046 60 289 60H20C8.95431 60 0 51.0457 0 40V20C0 8.9543 8.95431 0 20 0H119.918C119.318 2.56934 119 5.24757 119 8C119 27.33 134.67 43 154 43Z"/>
</mask>
<path fill-rule="evenodd" clip-rule="evenodd" d="M154 43C173.33 43 189 27.33 189 8C189 5.24757 188.682 2.56934 188.082 0H289C300.046 0 309 8.95431 309 20V40C309 51.0457 300.046 60 289 60H20C8.95431 60 0 51.0457 0 40V20C0 8.9543 8.95431 0 20 0H119.918C119.318 2.56934 119 5.24757 119 8C119 27.33 134.67 43 154 43Z" fill="white"/>
<path d="M188.082 0V-1H186.821L187.108 0.227675L188.082 0ZM119.918 0L120.892 0.227678L121.179 -1H119.918V0ZM188 8C188 26.7777 172.778 42 154 42V44C173.882 44 190 27.8823 190 8H188ZM187.108 0.227675C187.691 2.72292 188 5.32476 188 8H190C190 5.17037 189.673 2.41577 189.055 -0.227675L187.108 0.227675ZM188.082 1H289V-1H188.082V1ZM289 1C299.493 1 308 9.50659 308 20H310C310 8.40202 300.598 -1 289 -1V1ZM308 20V40H310V20H308ZM308 40C308 50.4934 299.493 59 289 59V61C300.598 61 310 51.598 310 40H308ZM289 59H20V61H289V59ZM20 59C9.50659 59 1 50.4934 1 40H-1C-1 51.598 8.40202 61 20 61V59ZM1 40V20H-1V40H1ZM1 20C1 9.50659 9.50659 1 20 1V-1C8.40202 -1 -1 8.40202 -1 20H1ZM20 1H119.918V-1H20V1ZM120 8C120 5.32476 120.309 2.72292 120.892 0.227678L118.945 -0.227678C118.327 2.41577 118 5.17037 118 8H120ZM154 42C135.222 42 120 26.7777 120 8H118C118 27.8823 134.118 44 154 44V42Z" fill="#E0E0E0" fill-opacity="0.37" mask="url(#path-1-inside-1_78_1931)"/>
</svg>
