<svg width="26" height="26" viewBox="0 0 26 26" fill="none" xmlns="http://www.w3.org/2000/svg">
<path fill-rule="evenodd" clip-rule="evenodd" d="M10.8977 13.6883L8.27543 12.8142C5.92221 12.0298 4.74561 11.6376 4.74561 10.9168C4.74561 10.1961 5.92221 9.80388 8.27543 9.01948L8.27543 9.01948L17.5386 5.93176C19.1944 5.37983 20.0223 5.10386 20.4593 5.54088C20.8963 5.97789 20.6203 6.80579 20.0684 8.46158L16.9807 17.7247L16.9807 17.7247C16.1963 20.078 15.8041 21.2546 15.0833 21.2546C14.3626 21.2546 13.9704 20.078 13.186 17.7247L12.3119 15.1025L16.8321 10.5823C17.2226 10.1918 17.2226 9.55859 16.8321 9.16807C16.4416 8.77755 15.8084 8.77755 15.4179 9.16807L10.8977 13.6883Z" fill="white"/>
</svg>
